<svg width="13" height="13" viewBox="0 0 13 13" fill="none" xmlns="http://www.w3.org/2000/svg">
<path d="M11.7547 5.56513L7.06692 0.898438C6.61314 0.444661 5.87567 0.444661 5.42066 0.898438L0.734146 5.56513C0.514846 5.78566 0.391113 6.08194 0.391113 6.39229C0.391113 6.70265 0.513616 7.00015 0.734146 7.21945L5.42066 11.8861C5.64817 12.1124 5.9469 12.2256 6.24441 12.2256C6.54191 12.2256 6.84051 12.1124 7.06692 11.8861L11.7547 7.21945C11.974 7.00015 12.0988 6.70265 12.0988 6.39229C12.0988 6.08194 11.9751 5.78443 11.7547 5.56513ZM6.24441 9.41286L3.21098 6.39229L6.24441 3.37172L9.27893 6.39229L6.24441 9.41286Z" fill="#212121"/>
</svg>
